<svg class="win_svg__icon" viewBox="0 0 1024 1024" xmlns="http://www.w3.org/2000/svg" width="16" height="16"><path d="M810.667 192A21.333 21.333 0 0 1 832 213.333v384a21.333 21.333 0 0 1-21.333 21.334H213.333A21.333 21.333 0 0 1 192 597.333v-384A21.333 21.333 0 0 1 213.333 192h597.334m0-64H213.333A85.333 85.333 0 0 0 128 213.333v384a85.333 85.333 0 0 0 85.333 85.334H480v128H330.667a32 32 0 0 0 0 64h362.666a32 32 0 0 0 0-64H544v-128h266.667A85.333 85.333 0 0 0 896 597.333v-384A85.333 85.333 0 0 0 810.667 128z" fill="#2c2c2c"></path></svg>